<?xml version="1.0" encoding="UTF-8" standalone="no"?>
<svg
   xmlns:dc="http://purl.org/dc/elements/1.1/"
   xmlns:cc="http://creativecommons.org/ns#"
   xmlns:rdf="http://www.w3.org/1999/02/22-rdf-syntax-ns#"
   xmlns:svg="http://www.w3.org/2000/svg"
   xmlns="http://www.w3.org/2000/svg"
   xmlns:xlink="http://www.w3.org/1999/xlink"
   id="svg4555"
   version="1.1"
   viewBox="0 0 1920 3000"
   height="3000mm"
   width="1920mm">
  <defs
     id="defs4549">
    <linearGradient
       id="linearGradient5832">
      <stop
         style="stop-color:#2a2c2b;stop-opacity:1"
         offset="0"
         id="stop5828" />
      <stop
         style="stop-color:#454a45;stop-opacity:1"
         offset="1"
         id="stop5830" />
    </linearGradient>
    <linearGradient
       id="linearGradient5766">
      <stop
         id="stop5762"
         offset="0"
         style="stop-color:#242624;stop-opacity:1;" />
      <stop
         id="stop5764"
         offset="1"
         style="stop-color:#393f3f;stop-opacity:1" />
    </linearGradient>
    <linearGradient
       id="linearGradient5743">
      <stop
         id="stop5739"
         offset="0"
         style="stop-color:#424e50;stop-opacity:0.87323946" />
      <stop
         id="stop5741"
         offset="1"
         style="stop-color:#d9d746;stop-opacity:1" />
    </linearGradient>
    <linearGradient
       id="linearGradient5725">
      <stop
         id="stop5721"
         offset="0"
         style="stop-color:#4b595c;stop-opacity:0.46948355" />
      <stop
         id="stop5723"
         offset="1"
         style="stop-color:#4b595c;stop-opacity:0;" />
    </linearGradient>
    <linearGradient
       id="linearGradient5715">
      <stop
         id="stop5711"
         offset="0"
         style="stop-color:#ffffff;stop-opacity:0.14553991" />
      <stop
         id="stop5713"
         offset="1"
         style="stop-color:#ffffff;stop-opacity:0;" />
    </linearGradient>
    <linearGradient
       id="linearGradient5215">
      <stop
         id="stop5211"
         offset="0"
         style="stop-color:#212221;stop-opacity:1" />
      <stop
         id="stop5213"
         offset="1"
         style="stop-color:#3a413d;stop-opacity:0.99215686" />
    </linearGradient>
    <linearGradient
       id="linearGradient5207">
      <stop
         id="stop5203"
         offset="0"
         style="stop-color:#1e1e1e;stop-opacity:1" />
      <stop
         id="stop5205"
         offset="1"
         style="stop-color:#3c433f;stop-opacity:0.99215686" />
    </linearGradient>
    <linearGradient
       id="linearGradient5167">
      <stop
         id="stop5163"
         offset="0"
         style="stop-color:#303633;stop-opacity:1" />
      <stop
         id="stop5165"
         offset="1"
         style="stop-color:#455254;stop-opacity:0.79607844" />
    </linearGradient>
    <linearGradient
       id="linearGradient5126">
      <stop
         id="stop5122"
         offset="0"
         style="stop-color:#384245;stop-opacity:1" />
      <stop
         id="stop5124"
         offset="1"
         style="stop-color:#475457;stop-opacity:0;" />
    </linearGradient>
    <linearGradient
       id="linearGradient4771">
      <stop
         id="stop4767"
         offset="0"
         style="stop-color:#6797a3;stop-opacity:0.33725491" />
      <stop
         id="stop4769"
         offset="1"
         style="stop-color:#434343;stop-opacity:0.26291078" />
    </linearGradient>
    <linearGradient
       gradientUnits="userSpaceOnUse"
       y2="156.75392"
       x2="43.466282"
       y1="-2691.7764"
       x1="1888.1986"
       id="linearGradient4773"
       xlink:href="#linearGradient4771" />
    <linearGradient
       gradientUnits="userSpaceOnUse"
       y2="1953.7621"
       x2="1084.0356"
       y1="3208.6428"
       x1="1090.0833"
       id="linearGradient5128"
       xlink:href="#linearGradient5126" />
    <linearGradient
       gradientUnits="userSpaceOnUse"
       y2="2569.1072"
       x2="1091.5953"
       y1="3052.9167"
       x1="1082.5238"
       id="linearGradient5169"
       xlink:href="#linearGradient5167" />
    <linearGradient
       gradientUnits="userSpaceOnUse"
       y2="-81.261826"
       x2="51.404762"
       y1="3033.262"
       x1="2304.1428"
       id="linearGradient5209"
       xlink:href="#linearGradient5207" />
    <linearGradient
       gradientUnits="userSpaceOnUse"
       y2="296.71442"
       x2="114.90475"
       y1="2165.4287"
       x1="314.47623"
       id="linearGradient5217"
       xlink:href="#linearGradient5215" />
    <linearGradient
       gradientUnits="userSpaceOnUse"
       y2="7507.2148"
       x2="3776.7029"
       y1="11665.376"
       x1="3780.05"
       id="linearGradient5717"
       xlink:href="#linearGradient5715" />
    <linearGradient
       gradientUnits="userSpaceOnUse"
       y2="-28.999737"
       x2="389.14441"
       y1="223.30269"
       x1="327.13791"
       id="linearGradient5727"
       xlink:href="#linearGradient5725" />
    <linearGradient
       gradientUnits="userSpaceOnUse"
       y2="-53.14571"
       x2="1520.7478"
       y1="242.54608"
       x1="1530.9198"
       id="linearGradient5745"
       xlink:href="#linearGradient5743" />
    <linearGradient
       y2="-147.22458"
       x2="1522.886"
       y1="242.54608"
       x1="1530.9198"
       gradientUnits="userSpaceOnUse"
       id="linearGradient5749"
       xlink:href="#linearGradient5743" />
    <linearGradient
       gradientTransform="translate(-45.357141,12.095238)"
       gradientUnits="userSpaceOnUse"
       y2="2202.4678"
       x2="511.01929"
       y1="2452.6321"
       x1="496.05225"
       id="linearGradient5768"
       xlink:href="#linearGradient5766" />
    <linearGradient
       gradientUnits="userSpaceOnUse"
       y2="1131.2858"
       x2="1430.2618"
       y1="1279.4524"
       x1="1452.9404"
       id="linearGradient5826"
       xlink:href="#linearGradient5832" />
    <linearGradient
       y2="-81.261826"
       x2="51.404762"
       y1="3033.262"
       x1="2304.1428"
       gradientUnits="userSpaceOnUse"
       id="linearGradient5863"
       xlink:href="#linearGradient5207" />
  </defs>
  <metadata
     id="metadata4552">
    <rdf:RDF>
      <cc:Work
         rdf:about="">
        <dc:format>image/svg+xml</dc:format>
        <dc:type
           rdf:resource="http://purl.org/dc/dcmitype/StillImage" />
        <dc:title></dc:title>
      </cc:Work>
    </rdf:RDF>
  </metadata>
  <g
     style="display:none"
     transform="translate(0,2703)"
     id="layer1">
    <rect
       y="-2703"
       x="0"
       height="3000"
       width="1920"
       id="rect5106"
       style="opacity:1;fill:url(#linearGradient4773);fill-opacity:1;fill-rule:nonzero;stroke:none;stroke-width:6;stroke-linecap:round;stroke-linejoin:miter;stroke-miterlimit:4;stroke-dasharray:none;stroke-opacity:1;paint-order:stroke fill markers" />
    <g
       transform="matrix(1.4761567e-4,2.0820161,-2.58205,1.8306825e-4,3208.5081,-1125.8261)"
       id="g970">
      <rect
         style="fill:#303633"
         x="0"
         y="0"
         width="250"
         height="220"
         id="rect950" />
      <rect
         style="fill:#2c4d54"
         x="250"
         y="0"
         width="250"
         height="220"
         id="rect952" />
      <text
         style="font-size:6px;font-family:Arial"
         x="10"
         y="235"
         font-size="6"
         alignment-baseline="middle"
         id="text954">Exported from Coolors.co</text>
      <text
         style="font-size:6px;font-family:Arial;text-anchor:end"
         x="490"
         y="235"
         font-size="6"
         alignment-baseline="middle"
         id="text956">https://coolors.co/303633-2c4d54</text>
    </g>
  </g>
  <g
     style="display:none"
     id="layer4">
    <path
       id="path5056"
       transform="scale(0.26458333)"
       d="m 2157.6855,-354.94336 -56.5683,993.99024 387.8984,589.92972 929.3399,266.6796 210.1113,509.1172 913.1777,-16.1621 c 0,0 226.2745,-185.8691 258.5996,-185.8691 32.3248,0 1163.6954,-290.9238 1163.6954,-290.9238 l 670.7421,832.3671 c 0,0 -6.7702,228.1264 -13.164,449.375 l -644.375,705.0215 -68.5703,1828.5723 434.2851,605.7148 -240,1040 -571.4297,262.8575 125.7149,1417.1425 -1142.8574,422.8555 -217.1426,331.4297 -765.7149,-91.4297 -468.5703,-708.5703 -765.7148,-754.2852 -205.7149,-537.1445 -1439.99997,-285.7129 c 0,0 -257.796,-15.3517 -668.345699,-58.7539 V 11339.303 H 7239.7754 V 2968.9746 c 181.8193,-75.4242 332.3281,-139.916 332.3281,-139.916 L 6634.6816,-338.78125 Z"
       style="fill:#4c5a5e;fill-opacity:0.5023474;stroke:none;stroke-width:0.99999994px;stroke-linecap:butt;stroke-linejoin:miter;stroke-opacity:0.54460096" />
    <path
       id="path5193"
       d="m -106.90781,579.60723 564.47322,183.88142 132.56569,89.80256 245.88796,17.10524 200.98664,134.70385 v 141.1182 l -136.84202,38.4869 -44.90129,102.6315 -149.67087,162.4999 C 245.52986,1673.9278 119.50325,1596.8103 -47.710207,1682.199 L -228.78271,1197.5343 Z"
       style="fill:#4b585c;fill-opacity:0.50196078;stroke:none;stroke-width:0.26458332px;stroke-linecap:butt;stroke-linejoin:miter;stroke-opacity:1" />
    <path
       id="path5226"
       transform="scale(0.26458333)"
       d="m -158.08398,8647.3379 -477.43555,192.8144 137.98047,2732.5337 496.3906225,-0.206 -170.2792925,-2599.6109 720,-308.5722 695.33393,139.0664 c 537.842,-53.0074 742.7425,-123.6836 -1401.99018,-156.0254 z m 2511.75778,365.8887 c -259.0041,-0.1702 -580.3983,15.3648 -904.6308,33.3242 l 153.7832,340.1875 c 45.16,-16.4453 72.1533,-34.0258 62.205,-93.7676 -18.501,-111.1041 1416.2971,60.6395 1244.3926,-196.2754 -41.6331,-62.2217 -257.2627,-83.2727 -555.75,-83.4687 z m 4485.6719,47.5605 -448.8809,30.3711 c 0,0 -991.7896,90.3632 -811.7851,118.123 180.0041,27.7592 892.83,242.9599 -786.9981,250.0586 -1679.8272,7.098 -902.3399,180.63 1298.5957,201.2598 202.0484,1.8938 362.5897,4.2052 488.1543,6.834 l 198.711,-397.4219 z m -4174.7676,417.6777 c -489.1715,-0.1112 -819.9855,12.7424 -1013.2812,15.4942 l 74.4179,164.623 121.3204,95.7793 c 189.4592,1.5666 355.5032,0.1468 156.125,-51.7207 -346.8846,-90.2411 2183.2928,-208.5232 979.875,-222.3008 -112.8205,-1.2916 -218.9151,-1.8523 -318.4571,-1.875 z m 3887.9727,240.7286 c -397.7661,17.4981 -945.6231,31.7226 -945.6231,31.7226 0,0 -2228.3441,208.5276 -27.0039,173.6055 74.3955,-1.1803 144.7578,-1.0277 211.3047,0.3476 l 197.3418,-140.5722 548.5723,-34.2852 z m -3634.1895,1198.3046 64.4961,66.799 2365.7129,68.57 v -26.068 c -591.6871,-0.548 -1565.1592,-37.117 -2430.209,-109.301 z"
       style="display:inline;opacity:0.98000004;fill:url(#linearGradient5717);fill-opacity:1;stroke:none;stroke-width:0.82724881px;stroke-linecap:butt;stroke-linejoin:miter;stroke-opacity:1" />
  </g>
  <g
     style="display:none"
     id="layer5">
    <path
       id="path5112"
       d="m -45.357142,2374.0714 190.499992,-81.6428 211.66666,42.3333 99.7857,220.7381 114.90476,90.7143 123.9762,42.3333 9.07143,130.0237 84.66666,87.6906 625.92854,18.1427 v -69.5476 l -51.4048,-108.8569 220.7381,-157.2382 145.1429,-9.0714 63.5,-127 33.2619,-111.881 75.5952,-39.3095 166.3095,-18.1429 -3.0238,783.1666 H 0 Z"
       style="fill:url(#linearGradient5128);fill-opacity:1;stroke:none;stroke-width:0.26458332px;stroke-linecap:butt;stroke-linejoin:miter;stroke-opacity:1" />
  </g>
  <g
     style="display:none"
     id="layer7">
    <path
       id="path5131"
       d="m -57.452378,2721.8095 c 6.047618,0 105.833329,-15.1191 105.833329,-15.1191 l 69.547619,13.6072 7.55952,34.7737 -7.55952,30.2382 46.86904,25.7024 30.2381,-16.6309 37.79762,10.5833 13.60714,33.2618 25.70238,16.6309 13.60715,12.0955 66.52379,36.2855 66.52381,-10.5834 31.75,-25.7021 55.94049,-1.5121 36.28569,15.1191 h 22.67858 l 6.04761,-15.1191 24.19048,-19.6546 74.08333,16.6309 v 7.5594 l 36.28573,19.6549 63.5,-16.631 3.02379,-13.6072 9.07142,-6.0476 51.40476,-6.0476 21.16667,31.75 15.11905,-9.0715 19.65476,6.0476 55.94049,-6.0476 181.42855,3.0239 87.6905,-39.3096 108.8571,-9.0713 30.2381,48.3809 51.4048,-13.6072 58.9642,-19.6548 16.631,-60.4761 96.7619,-15.1191 45.3571,6.0476 33.262,49.893 49.8928,-7.5597 21.1667,-24.1903 -3.0238,-24.1906 c 0,0 30.2381,-25.7024 36.2857,-30.2382 6.0476,-4.5355 69.5476,-61.9879 69.5476,-61.9879 l 72.5714,-33.262 89.2024,19.6548 c 0,0 -22.6786,361.3451 -22.6786,353.7857 0,-7.5594 -1997.22609,12.0952 -1997.22609,12.0952 z"
       style="fill:url(#linearGradient5169);fill-opacity:1;stroke:none;stroke-width:0.26458332px;stroke-linecap:butt;stroke-linejoin:miter;stroke-opacity:1" />
  </g>
  <g
     style="display:none"
     transform="translate(0,2704)"
     id="layer6">
    <rect
       y="16.297707"
       x="319.0119"
       height="175.38094"
       width="55.940472"
       id="rect915"
       style="opacity:1;fill:#991140;fill-opacity:1;fill-rule:nonzero;stroke:none;stroke-width:6;stroke-linecap:round;stroke-linejoin:miter;stroke-miterlimit:4;stroke-dasharray:none;stroke-opacity:1;paint-order:stroke fill markers" />
    <rect
       style="opacity:1;fill:#d9d746;fill-opacity:1;fill-rule:nonzero;stroke:none;stroke-width:6;stroke-linecap:round;stroke-linejoin:miter;stroke-miterlimit:4;stroke-dasharray:none;stroke-opacity:1;paint-order:stroke fill markers"
       id="rect917"
       width="55.940472"
       height="175.38094"
       x="1495.2738"
       y="21.589375" />
    <rect
       style="opacity:1;fill:url(#linearGradient5727);fill-opacity:1;fill-rule:nonzero;stroke:none;stroke-width:6;stroke-linecap:round;stroke-linejoin:miter;stroke-miterlimit:4;stroke-dasharray:none;stroke-opacity:1;paint-order:stroke fill markers"
       id="rect5719"
       width="55.940472"
       height="175.38094"
       x="319.0119"
       y="16.297707" />
    <rect
       y="21.589375"
       x="1495.2738"
       height="175.38094"
       width="55.940472"
       id="rect5729"
       style="opacity:1;fill:url(#linearGradient5745);fill-opacity:1;fill-rule:nonzero;stroke:none;stroke-width:6;stroke-linecap:round;stroke-linejoin:miter;stroke-miterlimit:4;stroke-dasharray:none;stroke-opacity:1;paint-order:stroke fill markers" />
    <rect
       style="opacity:1;fill:url(#linearGradient5749);fill-opacity:1;fill-rule:nonzero;stroke:none;stroke-width:6;stroke-linecap:round;stroke-linejoin:miter;stroke-miterlimit:4;stroke-dasharray:none;stroke-opacity:1;paint-order:stroke fill markers"
       id="rect5747"
       width="55.940472"
       height="175.38094"
       x="1495.2738"
       y="21.589375" />
  </g>
  <g
     style="display:none"
     id="layer2">
    <g
       transform="matrix(1.2971666,0,0,1,-373.66176,3.0238094)"
       style="fill:#212221;fill-opacity:1"
       id="g1009">
      <path
         id="path978"
         d="m -31.749998,2884.0356 1997.226198,7.5594 -1.512,142.1191 -1989.66658,9.0715 z"
         style="fill:#212221;fill-opacity:1;stroke:none;stroke-width:0.26458332px;stroke-linecap:butt;stroke-linejoin:miter;stroke-opacity:1" />
      <path
         style="fill:#212221;fill-opacity:1;stroke:none;stroke-width:0.26458332px;stroke-linecap:butt;stroke-linejoin:miter;stroke-opacity:1"
         d="m -28.726189,2895.1468 1997.226189,7.5594 -1.512,142.1191 -1989.666571,9.0715 z"
         id="path996" />
    </g>
    <path
       id="path1015"
       d="m -42.333333,556.76196 75.595236,66.52382 36.285714,63.5 190.499993,-3.02382 78.61905,139.09524 169.33331,57.45236 v 42.33334 l 45.35715,-3.02382 18.14285,33.26191 136.07142,30.23809 -15.11903,66.52382 -45.35715,18.1428 12.09524,21.1667 28.72618,10.5833 30.23809,45.3572 -4.5357,13.6071 -3.02381,24.1905 52.91666,15.1191 28.72619,24.1904 16.63096,40.8215 3.02379,43.8452 7.55955,22.6786 -37.79764,9.0714 1.51191,21.1666 7.55952,7.5596 1.51191,48.3809 -10.58334,13.6072 -12.09521,-6.0477 1.51188,52.9167 19.65476,28.7262 13.60715,57.4524 -36.2857,7.5595 -39.30954,30.2381 -16.63095,-18.1429 -28.72618,45.3572 18.14285,10.5833 -6.04761,22.6786 -16.63096,52.9167 -142.11903,89.2023 -69.54764,16.631 -22.67855,31.75 -3.02381,18.1429 -13.60715,21.1666 -37.79761,25.7024 -125.4881,42.3333 -61.98809,10.5833 -61.98809,36.2858 -7.55953,42.3333 -16.63095,9.0714 -27.214282,-10.5833 -15.119048,12.0952 -21.166667,-21.1666 v 22.6785 L 31.75,2083.7857 l -51.404761,13.6072 -40.821426,65.0119 -142.119043,36.2857 -232.83331,-99.7857 75.59521,-1460.49999 z"
       style="fill:url(#linearGradient5217);fill-opacity:1;stroke:#000000;stroke-width:0.26458332px;stroke-linecap:butt;stroke-linejoin:miter;stroke-opacity:1" />
    <path
       style="fill:url(#linearGradient5826);fill-opacity:1;stroke:none;stroke-width:0.2816883px;stroke-linecap:butt;stroke-linejoin:miter;stroke-opacity:1"
       d="m 1948.5485,1208.7351 10.9075,48.1018 -38.7821,17.1028 -2.4239,32.068 -33.9345,4.2757 -4.8477,-9.6204 h -14.5433 l -2.424,35.2746 -14.5432,2.1379 -26.6628,-4.2757 -53.3256,-21.3786 h -39.9942 l -93.3197,-2.1378 -27.8747,17.1028 -70.2927,-2.1378 -6.0597,-14.965 1.2119,-12.8272 -13.3313,-1.0689 -39.9941,1.0689 -7.2717,5.3446 h -37.5703 l -26.6629,-8.5514 -3.6357,-8.5514 h -44.842 l -7.2716,-20.3097 -31.5106,-14.965 -1.2119,-26.7232 z"
       id="path5770" />
    <path
       id="path4722"
       d="m 137.81126,-28.161734 26.98635,46.685622 h 52.91667 l 1.5119,12.095237 52.91667,-1.511905 10.58333,-6.047618 v 19.65476 l -10.58333,3.023812 v 15.119045 h 33.2619 l 120.95237,-1.511903 21.16666,15.119045 c 0,0 -3.02379,21.166667 -24.19045,24.190476 -21.16667,3.023813 -46.86906,15.119053 -46.86906,15.119053 l -1.51191,19.65476 57.45239,1.5119 v 10.58333 l 89.20237,-4.53571 v 9.07143 h 75.59524 l 9.07142,-7.55953 37.79764,-1.5119 c 0,0 21.16664,6.04762 15.11903,13.60714 -6.04761,7.55952 -24.19048,9.07143 -24.19048,9.07143 v 13.60714 l 12.09524,7.55953 -9.07143,1.5119 -12.09524,13.60714 19.65476,4.53572 39.30954,-4.53572 19.65476,-13.60714 51.40476,22.67857 46.86903,-12.09524 65.01191,6.04762 25.70239,15.11905 h -28.72621 l -40.82143,-1.51191 v 25.70238 l 39.30955,-3.0238 1.51188,15.11904 83.15476,-6.04762 v 15.11905 l -16.63094,3.02381 3.02381,16.63095 10.58334,1.5119 -3.02382,13.60715 45.35715,1.51191 4.5357,-7.55954 9.07142,6.04763 93.7381,-3.02381 c 0,0 3.0238,7.55951 -7.5595,16.63094 -10.5834,9.07145 -13.6071,25.70239 -13.6071,25.70239 l 39.3095,1.51191 v 10.58333 h 33.2619 l 13.6071,-12.09524 v 10.58333 l 37.7976,1.51191 16.631,22.67858 -24.1905,22.67857 -6.0476,37.79761 52.9166,22.67857 h 55.9405 l 39.3095,-7.55954 51.4048,16.63097 h 43.8452 v 13.60715 l -18.1428,6.04761 -3.0238,21.16666 63.5,-3.02381 3.0238,13.60715 h 27.2143 l 1.5119,16.63094 13.6071,4.53572 v 18.14285 h -27.2143 l 7.5595,16.63097 h 84.6667 c 0,0 9.0714,7.55952 3.0238,12.09521 -6.0476,4.53573 -15.119,24.19049 -15.119,24.19049 l 3.0238,9.07142 22.6786,9.07143 57.4523,-9.07143 7.5596,33.26191 30.2381,21.16667 -6.0477,34.77381 18.1429,72.57143 42.3333,6.04761 -18.1428,39.30954 -39.3096,18.14285 -6.0476,72.57142 40.8215,30.23809 28.7261,6.04761 -19.6547,72.57142 -3.0238,63.5 13.6071,71.0595 -15.119,7.5596 -3.0238,42.3333 16.6309,6.0476 4.5357,25.7024 -19.6547,25.7024 v 22.6785 l 12.0952,-3.0238 7.5595,16.631 -18.1428,57.4523 -12.0953,-1.5118 c 0,0 -13.6071,18.1428 -13.6071,25.7023 0,7.5595 25.7024,60.4762 25.7024,60.4762 l 24.1904,24.1905 7.5596,21.1667 -24.1905,10.5833 -13.6071,12.0952 27.2142,18.1429 v 34.7738 c 0,0 -28.7262,25.7024 -30.2381,36.2857 -1.5119,10.5833 3.0239,57.4524 3.0239,57.4524 l 10.5833,9.0714 h 21.1667 l 9.0714,80.131 c 0,0 -10.5834,27.2143 -12.0953,37.7976 -1.5119,10.5833 -22.6785,75.5952 -22.6785,75.5952 l -6.0476,6.0476 28.7261,-4.5357 -1.5119,37.7977 -19.6547,43.8452 -24.1905,-15.1191 -13.6071,12.0953 -6.0477,22.6785 -1.5119,66.5238 9.0715,24.1905 -37.7977,34.7738 -48.3809,3.0238 -21.1667,22.6786 -39.3095,27.2143 -25.7024,-7.5595 -43.8452,9.0714 -78.6191,-10.5833 -187.4761,1.5119 -27.2143,12.0952 -13.6072,22.6786 v 16.6309 l 12.0953,4.5357 10.5833,19.6548 c 0,0 -7.5595,12.0952 -1.5119,12.0952 6.0476,0 90.7143,7.5596 90.7143,7.5596 l 42.3333,-13.6072 139.0953,7.5596 137.5833,-7.5596 c 0,0 80.1309,21.1667 86.1785,22.6786 6.0477,1.5119 128.5119,69.5476 128.5119,69.5476 l 39.3096,-1.5119 18.1428,1.5119 v 16.631 l -16.6309,-1.5119 c 0,0 3.0238,27.2143 3.0238,34.7738 0,7.5595 18.1428,9.0714 18.1428,9.0714 l 9.0715,25.7024 -12.0953,-1.5119 -18.1428,30.2381 -6.0476,31.75 19.6547,-3.0238 9.0714,21.1666 -6.0476,60.4762 -22.6785,13.6071 -22.6786,45.3572 10.5833,37.7976 25.7024,-6.0476 -4.5357,25.7023 7.5595,52.9166 -21.1667,74.0834 -22.6785,28.7263 -19.6548,54.4285 -34.7738,24.1906 4.5357,27.2142 52.9167,28.7261 237.369,13.6073 113.3929,-4.5358 -101.2977,-3067.65464 -1930.73373,10.47589 z"
       style="fill:url(#linearGradient5863);fill-opacity:1;stroke:none;stroke-width:0.26458332px;stroke-linecap:butt;stroke-linejoin:miter;stroke-opacity:1" />
    <path
       id="path5836"
       d="m 556.98966,2942.2698 134.70384,-79.1117 79.11177,-72.6975 121.87492,-23.5196 h 117.59861 l 147.5328,12.8289 36.3486,76.9736 64.1447,2.1381 34.2105,44.9014 17.1053,76.9736 -763.32182,-8.5526 z"
       style="fill:#212221;fill-opacity:1;stroke:none;stroke-width:0.26458332px;stroke-linecap:butt;stroke-linejoin:miter;stroke-opacity:1" />
    <path
       style="fill:#212221;fill-opacity:1;stroke:none;stroke-width:0.07633612px;stroke-linecap:butt;stroke-linejoin:miter;stroke-opacity:1"
       d="m 170.7869,2913.1101 -27.50251,-32.0666 -14.9324,-28.1065 -27.1178,-12.0248 -27.22155,-3.5808 -34.747189,0.043 -11.993031,26.1024 -14.947543,-1.1973 -10.0068148,14.8304 -7.5386404,26.6884 177.0902782,20.219 z"
       id="path5898" />
    <path
       style="display:inline;fill:#212221;fill-opacity:1;stroke:none;stroke-width:0.09307487px;stroke-linecap:butt;stroke-linejoin:miter;stroke-opacity:1"
       d="m 1518.7074,2925.0905 40.8864,-32.0666 22.199,-28.1065 40.3143,-12.0248 40.4685,-3.5808 51.6565,0.043 17.8292,26.1024 22.2216,-1.1973 14.8765,14.8304 11.2072,26.6884 -263.2689,20.219 z"
       id="path5898-7" />
    <path
       style="display:inline;fill:#212221;fill-opacity:1;stroke:none;stroke-width:0.06392156px;stroke-linecap:butt;stroke-linejoin:miter;stroke-opacity:1"
       d="m 346.3216,2941.7214 -19.28444,-32.0666 -10.47042,-28.1065 -19.01468,-12.0248 -19.08743,-3.5808 -24.36432,0.043 -8.40937,26.1024 -10.48104,-1.1973 -7.01666,14.8304 -5.28601,26.6884 124.17361,20.219 z"
       id="path5898-4" />
    <path
       style="display:inline;fill:#212221;fill-opacity:1;stroke:none;stroke-width:0.10559552px;stroke-linecap:butt;stroke-linejoin:miter;stroke-opacity:1"
       d="m 691.23508,2935.6738 -52.62634,-32.0666 -28.5733,-28.1065 -51.89019,-12.0248 -52.08872,-3.5808 -66.48911,0.043 -22.94879,26.1024 -28.60227,-1.1973 -19.14815,14.8304 -14.42527,26.6884 338.86409,20.219 z"
       id="path5898-6" />
    <path
       style="display:inline;fill:#212221;fill-opacity:1;stroke:none;stroke-width:0.06290301px;stroke-linecap:butt;stroke-linejoin:miter;stroke-opacity:1"
       d="m 1203.0025,2930.9996 25.9469,-25.5905 16.1461,-23.6224 21.8136,-7.4121 20.2633,0.2814 24.9776,4.555 3.601,25.2994 10.979,0.8538 4.3418,14.7891 0.2852,25.2533 -131.2319,-4.6279 z"
       id="path5898-2" />
    <g
       id="g5937"
       style="fill:#212221;fill-opacity:1"
       transform="matrix(1.2971666,0,0,1,-373.66176,3.0238094)">
      <path
         style="fill:#212221;fill-opacity:1;stroke:none;stroke-width:0.26458332px;stroke-linecap:butt;stroke-linejoin:miter;stroke-opacity:1"
         d="m -31.749998,2884.0356 1997.226198,7.5594 -1.512,142.1191 -1989.66658,9.0715 z"
         id="path5933" />
      <path
         id="path5935"
         d="m -28.726189,2895.1468 1997.226189,7.5594 -1.512,142.1191 -1989.666571,9.0715 z"
         style="fill:#212221;fill-opacity:1;stroke:none;stroke-width:0.26458332px;stroke-linecap:butt;stroke-linejoin:miter;stroke-opacity:1" />
    </g>
  </g>
  <g
     style="display:inline"
     id="layer9">
    <path
       id="path5752"
       d="m 236.87948,2315.0563 -9.6217,48.1085 34.21049,17.1052 2.13815,32.0724 29.93419,4.2763 4.2763,-9.6217 h 12.82896 l 2.13815,35.2795 12.82893,2.1382 23.51971,-4.2763 47.03945,-21.3816 h 35.27957 l 82.31902,-2.1381 24.58879,17.1052 62.00653,-2.1381 5.34537,-14.9671 -1.06907,-12.829 11.75985,-1.069 35.2796,1.069 6.41445,5.3454 h 33.14142 l 23.51974,-8.5526 3.20722,-8.5526 h 39.5559 l 6.41445,-20.3125 27.79604,-14.9671 1.06908,-26.7269 z"
       style="fill:url(#linearGradient5768);fill-opacity:1;stroke:none;stroke-width:0.26458332px;stroke-linecap:butt;stroke-linejoin:miter;stroke-opacity:1" />
  </g>
</svg>
