<?xml version="1.0" encoding="UTF-8" standalone="no"?>
<!-- Created with Inkscape (http://www.inkscape.org/) -->

<svg
   xmlns:dc="http://purl.org/dc/elements/1.1/"
   xmlns:cc="http://creativecommons.org/ns#"
   xmlns:rdf="http://www.w3.org/1999/02/22-rdf-syntax-ns#"
   xmlns:svg="http://www.w3.org/2000/svg"
   xmlns="http://www.w3.org/2000/svg"
   xmlns:sodipodi="http://sodipodi.sourceforge.net/DTD/sodipodi-0.dtd"
   xmlns:inkscape="http://www.inkscape.org/namespaces/inkscape"
   width="1920mm"
   height="3000mm"
   viewBox="0 0 1920 3000"
   version="1.1"
   id="svg4555"
   inkscape:version="0.92.4 (5da689c313, 2019-01-14)"
   sodipodi:docname="level_cave.svg">
  <defs
     id="defs4549" />
  <sodipodi:namedview
     id="base"
     pagecolor="#606060"
     bordercolor="#000000"
     borderopacity="1"
     inkscape:pageopacity="1"
     inkscape:pageshadow="2"
     inkscape:zoom="0.061871845"
     inkscape:cx="2362.1956"
     inkscape:cy="5709.9384"
     inkscape:document-units="mm"
     inkscape:current-layer="layer2"
     showgrid="true"
     inkscape:pagecheckerboard="true"
     inkscape:showpageshadow="false"
     inkscape:snap-page="false"
     inkscape:window-width="1920"
     inkscape:window-height="1017"
     inkscape:window-x="-8"
     inkscape:window-y="-8"
     inkscape:window-maximized="1"
     borderlayer="true"
     inkscape:object-nodes="false">
    <inkscape:grid
       type="xygrid"
       id="grid5100"
       visible="true"
       enabled="false" />
  </sodipodi:namedview>
  <metadata
     id="metadata4552">
    <rdf:RDF>
      <cc:Work
         rdf:about="">
        <dc:format>image/svg+xml</dc:format>
        <dc:type
           rdf:resource="http://purl.org/dc/dcmitype/StillImage" />
        <dc:title />
      </cc:Work>
    </rdf:RDF>
  </metadata>
  <g
     inkscape:label="Background"
     inkscape:groupmode="layer"
     id="layer1"
     transform="translate(0,2703)"
     style="display:none">
    <rect
       style="opacity:1;fill:#ffffff;fill-opacity:1;fill-rule:nonzero;stroke:none;stroke-width:6;stroke-linecap:round;stroke-linejoin:miter;stroke-miterlimit:4;stroke-dasharray:none;stroke-opacity:1;paint-order:stroke fill markers"
       id="rect5106"
       width="1920"
       height="3000"
       x="0"
       y="-2703" />
    <g
       id="g970"
       transform="matrix(1.4761567e-4,2.0820161,-2.58205,1.8306825e-4,3208.5081,-1125.8261)">
      <rect
         id="rect950"
         height="220"
         width="250"
         y="0"
         x="0"
         style="fill:#303633" />
      <rect
         id="rect952"
         height="220"
         width="250"
         y="0"
         x="250"
         style="fill:#2c4d54" />
      <text
         id="text954"
         alignment-baseline="middle"
         font-size="6"
         y="235"
         x="10"
         style="font-size:6px;font-family:Arial">Exported from Coolors.co</text>
      <text
         id="text956"
         alignment-baseline="middle"
         font-size="6"
         y="235"
         x="490"
         style="font-size:6px;font-family:Arial;text-anchor:end">https://coolors.co/303633-2c4d54</text>
    </g>
  </g>
  <g
     inkscape:groupmode="layer"
     id="layer2"
     inkscape:label="Floor">
    <g
       id="g1009"
       style="fill:#303633;fill-opacity:1"
       transform="matrix(1.2971666,0,0,1,-379.70938,0)">
      <path
         style="fill:#303633;fill-opacity:1;stroke:none;stroke-width:0.26458332px;stroke-linecap:butt;stroke-linejoin:miter;stroke-opacity:1"
         d="m -31.749998,2884.0356 1997.226198,7.5594 -1.512,142.1191 -1989.66658,9.0715 z"
         id="path978"
         inkscape:connector-curvature="0" />
      <path
         inkscape:connector-curvature="0"
         id="path996"
         d="m -28.726189,2895.1468 1997.226189,7.5594 -1.512,142.1191 -1989.666571,9.0715 z"
         style="fill:#303633;fill-opacity:1;stroke:none;stroke-width:0.26458332px;stroke-linecap:butt;stroke-linejoin:miter;stroke-opacity:1" />
    </g>
    <path
       style="fill:#303633;fill-opacity:1;stroke:#000000;stroke-width:0.26458332px;stroke-linecap:butt;stroke-linejoin:miter;stroke-opacity:1"
       d="m -42.333333,556.76196 75.595236,66.52382 36.285714,63.5 190.499993,-3.02382 78.61905,139.09524 169.33331,57.45236 v 42.33334 l 45.35715,-3.02382 18.14285,33.26191 136.07142,30.23809 -15.11903,66.52382 -45.35715,18.1428 12.09524,21.1667 28.72618,10.5833 30.23809,45.3572 -4.5357,13.6071 -3.02381,24.1905 52.91666,15.1191 28.72619,24.1904 16.63096,40.8215 3.02379,43.8452 7.55955,22.6786 -37.79764,9.0714 1.51191,21.1666 7.55952,7.5596 1.51191,48.3809 -10.58334,13.6072 -12.09521,-6.0477 1.51188,52.9167 19.65476,28.7262 13.60715,57.4524 -36.2857,7.5595 -39.30954,30.2381 -16.63095,-18.1429 -28.72618,45.3572 18.14285,10.5833 -6.04761,22.6786 -16.63096,52.9167 -142.11903,89.2023 -69.54764,16.631 -22.67855,31.75 -3.02381,18.1429 -13.60715,21.1666 -37.79761,25.7024 -125.4881,42.3333 -61.98809,10.5833 -61.98809,36.2858 -7.55953,42.3333 -16.63095,9.0714 -27.214282,-10.5833 -15.119048,12.0952 -21.166667,-21.1666 v 22.6785 L 31.75,2083.7857 l -51.404761,13.6072 -40.821426,65.0119 -142.119043,36.2857 -232.83331,-99.7857 75.59521,-1460.49999 z"
       id="path1015"
       inkscape:connector-curvature="0" />
    <path
       style="fill:#303633;fill-opacity:1;stroke:none;stroke-width:0.26458332px;stroke-linecap:butt;stroke-linejoin:miter;stroke-opacity:1"
       d="m 137.81126,-28.161734 26.98635,46.685622 h 52.91667 l 1.5119,12.095237 52.91667,-1.511905 10.58333,-6.047618 v 19.65476 l -10.58333,3.023812 v 15.119045 h 33.2619 l 120.95237,-1.511903 21.16666,15.119045 c 0,0 -3.02379,21.166667 -24.19045,24.190476 -21.16667,3.023813 -46.86906,15.119053 -46.86906,15.119053 l -1.51191,19.65476 57.45239,1.5119 v 10.58333 l 89.20237,-4.53571 v 9.07143 h 75.59524 l 9.07142,-7.55953 37.79764,-1.5119 c 0,0 21.16664,6.04762 15.11903,13.60714 -6.04761,7.55952 -24.19048,9.07143 -24.19048,9.07143 v 13.60714 l 12.09524,7.55953 -9.07143,1.5119 -12.09524,13.60714 19.65476,4.53572 39.30954,-4.53572 19.65476,-13.60714 51.40476,22.67857 46.86903,-12.09524 65.01191,6.04762 25.70239,15.11905 h -28.72621 l -40.82143,-1.51191 v 25.70238 l 39.30955,-3.0238 1.51188,15.11904 83.15476,-6.04762 v 15.11905 l -16.63094,3.02381 3.02381,16.63095 10.58334,1.5119 -3.02382,13.60715 45.35715,1.51191 4.5357,-7.55954 9.07142,6.04763 93.7381,-3.02381 c 0,0 3.0238,7.55951 -7.5595,16.63094 -10.5834,9.07145 -13.6071,25.70239 -13.6071,25.70239 l 39.3095,1.51191 v 10.58333 h 33.2619 l 13.6071,-12.09524 v 10.58333 l 37.7976,1.51191 16.631,22.67858 -24.1905,22.67857 -6.0476,37.79761 52.9166,22.67857 h 55.9405 l 39.3095,-7.55954 51.4048,16.63097 h 43.8452 v 13.60715 l -18.1428,6.04761 -3.0238,21.16666 63.5,-3.02381 3.0238,13.60715 h 27.2143 l 1.5119,16.63094 13.6071,4.53572 v 18.14285 h -27.2143 l 7.5595,16.63097 h 84.6667 c 0,0 9.0714,7.55952 3.0238,12.09521 -6.0476,4.53573 -15.119,24.19049 -15.119,24.19049 l 3.0238,9.07142 22.6786,9.07143 57.4523,-9.07143 7.5596,33.26191 30.2381,21.16667 -6.0477,34.77381 18.1429,72.57143 42.3333,6.04761 -18.1428,39.30954 -39.3096,18.14285 -6.0476,72.57142 40.8215,30.23809 28.7261,6.04761 -19.6547,72.57142 -3.0238,63.5 13.6071,71.0595 -15.119,7.5596 -3.0238,42.3333 16.6309,6.0476 4.5357,25.7024 -19.6547,25.7024 v 22.6785 l 12.0952,-3.0238 7.5595,16.631 -18.1428,57.4523 -12.0953,-1.5118 c 0,0 -13.6071,18.1428 -13.6071,25.7023 0,7.5595 25.7024,60.4762 25.7024,60.4762 l 24.1904,24.1905 7.5596,21.1667 -24.1905,10.5833 -13.6071,12.0952 27.2142,18.1429 v 34.7738 c 0,0 -28.7262,25.7024 -30.2381,36.2857 -1.5119,10.5833 3.0239,57.4524 3.0239,57.4524 l 10.5833,9.0714 h 21.1667 l 9.0714,80.131 c 0,0 -10.5834,27.2143 -12.0953,37.7976 -1.5119,10.5833 -22.6785,75.5952 -22.6785,75.5952 l -6.0476,6.0476 28.7261,-4.5357 -1.5119,37.7977 -19.6547,43.8452 -24.1905,-15.1191 -13.6071,12.0953 -6.0477,22.6785 -1.5119,66.5238 9.0715,24.1905 -37.7977,34.7738 -48.3809,3.0238 -21.1667,22.6786 -39.3095,27.2143 -25.7024,-7.5595 -43.8452,9.0714 -78.6191,-10.5833 -187.4761,1.5119 -27.2143,12.0952 -13.6072,22.6786 v 16.6309 l 12.0953,4.5357 10.5833,19.6548 c 0,0 -7.5595,12.0952 -1.5119,12.0952 6.0476,0 90.7143,7.5596 90.7143,7.5596 l 42.3333,-13.6072 139.0953,7.5596 137.5833,-7.5596 c 0,0 80.1309,21.1667 86.1785,22.6786 6.0477,1.5119 128.5119,69.5476 128.5119,69.5476 l 39.3096,-1.5119 18.1428,1.5119 v 16.631 l -16.6309,-1.5119 c 0,0 3.0238,27.2143 3.0238,34.7738 0,7.5595 18.1428,9.0714 18.1428,9.0714 l 9.0715,25.7024 -12.0953,-1.5119 -18.1428,30.2381 -6.0476,31.75 19.6547,-3.0238 9.0714,21.1666 -6.0476,60.4762 -22.6785,13.6071 -22.6786,45.3572 10.5833,37.7976 25.7024,-6.0476 -4.5357,25.7023 7.5595,52.9166 -21.1667,74.0834 -22.6785,28.7263 -19.6548,54.4285 -34.7738,24.1906 4.5357,27.2142 52.9167,28.7261 237.369,13.6073 113.3929,-4.5358 -101.2977,-3067.65464 -1930.73373,10.47589 z"
       id="path4722"
       inkscape:connector-curvature="0"
       sodipodi:nodetypes="ccccccccccccscccccccccscccccccccccccccccccccccccccccccccccccccccccccccccccccccccccccccccccccccccccccccccccscccccccsccccscccccccccccccccccccccccsccccccccccsccccccccccccccccccccccccc" />
  </g>
  <g
     inkscape:groupmode="layer"
     id="layer6"
     inkscape:label="Players"
     transform="translate(0,2704)"
     style="display:none">
    <rect
       style="opacity:1;fill:#ea467f;fill-opacity:1;fill-rule:nonzero;stroke:none;stroke-width:6;stroke-linecap:round;stroke-linejoin:miter;stroke-miterlimit:4;stroke-dasharray:none;stroke-opacity:1;paint-order:stroke fill markers"
       id="rect915"
       width="55.940472"
       height="175.38094"
       x="319.0119"
       y="16.297707" />
    <rect
       y="21.589375"
       x="1495.2738"
       height="175.38094"
       width="55.940472"
       id="rect917"
       style="opacity:1;fill:#46c4d9;fill-opacity:1;fill-rule:nonzero;stroke:none;stroke-width:6;stroke-linecap:round;stroke-linejoin:miter;stroke-miterlimit:4;stroke-dasharray:none;stroke-opacity:1;paint-order:stroke fill markers" />
  </g>
</svg>
